<svg xmlns="http://www.w3.org/2000/svg" xmlns:xlink="http://www.w3.org/1999/xlink" version="1.1" class="marks" width="561" height="264" viewBox="0 0 561 264"><rect width="561" height="264" fill="white"/><g fill="none" stroke-miterlimit="10" transform="translate(39,27)"><g class="mark-group role-frame root" role="graphics-object" aria-roledescription="group mark container"><g transform="translate(0,0)"><path class="background" aria-hidden="true" d="M0.5,0.5h400v200h-400Z" stroke="#ddd"/><g><g class="mark-group role-axis" aria-hidden="true"><g transform="translate(0.5,200.5)"><path class="background" aria-hidden="true" d="M0,0h0v0h0Z" pointer-events="none"/><g><g class="mark-rule role-axis-grid" pointer-events="none"><line transform="translate(0,-200)" x2="0" y2="200" stroke="#ddd" stroke-width="1" opacity="1"/><line transform="translate(26,-200)" x2="0" y2="200" stroke="#ddd" stroke-width="1" opacity="1"/><line transform="translate(52,-200)" x2="0" y2="200" stroke="#ddd" stroke-width="1" opacity="1"/><line transform="translate(78,-200)" x2="0" y2="200" stroke="#ddd" stroke-width="1" opacity="1"/><line transform="translate(104,-200)" x2="0" y2="200" stroke="#ddd" stroke-width="1" opacity="1"/><line transform="translate(130,-200)" x2="0" y2="200" stroke="#ddd" stroke-width="1" opacity="1"/><line transform="translate(156,-200)" x2="0" y2="200" stroke="#ddd" stroke-width="1" opacity="1"/><line transform="translate(182,-200)" x2="0" y2="200" stroke="#ddd" stroke-width="1" opacity="1"/><line transform="translate(209,-200)" x2="0" y2="200" stroke="#ddd" stroke-width="1" opacity="1"/><line transform="translate(234,-200)" x2="0" y2="200" stroke="#ddd" stroke-width="1" opacity="1"/><line transform="translate(260,-200)" x2="0" y2="200" stroke="#ddd" stroke-width="1" opacity="1"/><line transform="translate(287,-200)" x2="0" y2="200" stroke="#ddd" stroke-width="1" opacity="1"/><line transform="translate(313,-200)" x2="0" y2="200" stroke="#ddd" stroke-width="1" opacity="1"/><line transform="translate(339,-200)" x2="0" y2="200" stroke="#ddd" stroke-width="1" opacity="1"/><line transform="translate(365,-200)" x2="0" y2="200" stroke="#ddd" stroke-width="1" opacity="1"/><line transform="translate(391,-200)" x2="0" y2="200" stroke="#ddd" stroke-width="1" opacity="1"/></g></g><path class="foreground" aria-hidden="true" d="" pointer-events="none" display="none"/></g></g><g class="mark-group role-axis" aria-hidden="true"><g transform="translate(0.5,0.5)"><path class="background" aria-hidden="true" d="M0,0h0v0h0Z" pointer-events="none"/><g><g class="mark-rule role-axis-grid" pointer-events="none"><line transform="translate(0,200)" x2="400" y2="0" stroke="#ddd" stroke-width="1" opacity="1"/><line transform="translate(0,167)" x2="400" y2="0" stroke="#ddd" stroke-width="1" opacity="1"/><line transform="translate(0,133)" x2="400" y2="0" stroke="#ddd" stroke-width="1" opacity="1"/><line transform="translate(0,100)" x2="400" y2="0" stroke="#ddd" stroke-width="1" opacity="1"/><line transform="translate(0,67)" x2="400" y2="0" stroke="#ddd" stroke-width="1" opacity="1"/><line transform="translate(0,33)" x2="400" y2="0" stroke="#ddd" stroke-width="1" opacity="1"/><line transform="translate(0,0)" x2="400" y2="0" stroke="#ddd" stroke-width="1" opacity="1"/></g></g><path class="foreground" aria-hidden="true" d="" pointer-events="none" display="none"/></g></g><g class="mark-group role-axis" role="graphics-symbol" aria-roledescription="axis" aria-label="X-axis titled 'Date' for a time scale with values from 2021-01 to 2024-11"><g transform="translate(0.5,200.5)"><path class="background" aria-hidden="true" d="M0,0h0v0h0Z" pointer-events="none"/><g><g class="mark-rule role-axis-tick" pointer-events="none"><line transform="translate(0,0)" x2="0" y2="5" stroke="#888" stroke-width="1" opacity="1"/><line transform="translate(26,0)" x2="0" y2="5" stroke="#888" stroke-width="1" opacity="1"/><line transform="translate(52,0)" x2="0" y2="5" stroke="#888" stroke-width="1" opacity="1"/><line transform="translate(78,0)" x2="0" y2="5" stroke="#888" stroke-width="1" opacity="1"/><line transform="translate(104,0)" x2="0" y2="5" stroke="#888" stroke-width="1" opacity="1"/><line transform="translate(130,0)" x2="0" y2="5" stroke="#888" stroke-width="1" opacity="1"/><line transform="translate(156,0)" x2="0" y2="5" stroke="#888" stroke-width="1" opacity="1"/><line transform="translate(182,0)" x2="0" y2="5" stroke="#888" stroke-width="1" opacity="1"/><line transform="translate(209,0)" x2="0" y2="5" stroke="#888" stroke-width="1" opacity="1"/><line transform="translate(234,0)" x2="0" y2="5" stroke="#888" stroke-width="1" opacity="1"/><line transform="translate(260,0)" x2="0" y2="5" stroke="#888" stroke-width="1" opacity="1"/><line transform="translate(287,0)" x2="0" y2="5" stroke="#888" stroke-width="1" opacity="1"/><line transform="translate(313,0)" x2="0" y2="5" stroke="#888" stroke-width="1" opacity="1"/><line transform="translate(339,0)" x2="0" y2="5" stroke="#888" stroke-width="1" opacity="1"/><line transform="translate(365,0)" x2="0" y2="5" stroke="#888" stroke-width="1" opacity="1"/><line transform="translate(391,0)" x2="0" y2="5" stroke="#888" stroke-width="1" opacity="1"/></g><g class="mark-text role-axis-label" pointer-events="none"><text text-anchor="start" transform="translate(0,15)" font-family="sans-serif" font-size="10px" fill="#000" opacity="1">2021-01</text><text text-anchor="middle" transform="translate(25.70314592696211,15)" font-family="sans-serif" font-size="10px" fill="#000" opacity="0">2021-04</text><text text-anchor="middle" transform="translate(51.70391975951665,15)" font-family="sans-serif" font-size="10px" fill="#000" opacity="0">2021-07</text><text text-anchor="middle" transform="translate(77.99041638143991,15)" font-family="sans-serif" font-size="10px" fill="#000" opacity="0">2021-10</text><text text-anchor="middle" transform="translate(104.2888181195869,15)" font-family="sans-serif" font-size="10px" fill="#000" opacity="1">2022-01</text><text text-anchor="middle" transform="translate(129.99196404654901,15)" font-family="sans-serif" font-size="10px" fill="#000" opacity="0">2022-04</text><text text-anchor="middle" transform="translate(155.99273787910354,15)" font-family="sans-serif" font-size="10px" fill="#000" opacity="0">2022-07</text><text text-anchor="middle" transform="translate(182.27923450102682,15)" font-family="sans-serif" font-size="10px" fill="#000" opacity="0">2022-10</text><text text-anchor="middle" transform="translate(208.5776362391738,15)" font-family="sans-serif" font-size="10px" fill="#000" opacity="1">2023-01</text><text text-anchor="middle" transform="translate(234.2807821661359,15)" font-family="sans-serif" font-size="10px" fill="#000" opacity="0">2023-04</text><text text-anchor="middle" transform="translate(260.28155599869046,15)" font-family="sans-serif" font-size="10px" fill="#000" opacity="0">2023-07</text><text text-anchor="middle" transform="translate(286.5680526206137,15)" font-family="sans-serif" font-size="10px" fill="#000" opacity="0">2023-10</text><text text-anchor="middle" transform="translate(312.8664543587607,15)" font-family="sans-serif" font-size="10px" fill="#000" opacity="1">2024-01</text><text text-anchor="middle" transform="translate(338.8553230750915,15)" font-family="sans-serif" font-size="10px" fill="#000" opacity="0">2024-04</text><text text-anchor="middle" transform="translate(364.8560969076461,15)" font-family="sans-serif" font-size="10px" fill="#000" opacity="0">2024-07</text><text text-anchor="middle" transform="translate(391.14259352956935,15)" font-family="sans-serif" font-size="10px" fill="#000" opacity="0">2024-10</text></g><g class="mark-rule role-axis-domain" pointer-events="none"><line transform="translate(0,0)" x2="400" y2="0" stroke="#888" stroke-width="1" opacity="1"/></g><g class="mark-text role-axis-title" pointer-events="none"><text text-anchor="middle" transform="translate(200,30)" font-family="sans-serif" font-size="11px" font-weight="bold" fill="#000" opacity="1">Date</text></g></g><path class="foreground" aria-hidden="true" d="" pointer-events="none" display="none"/></g></g><g class="mark-group role-axis" role="graphics-symbol" aria-roledescription="axis" aria-label="Y-axis titled 'Number of Categories' for a linear scale with values from 0 to 30"><g transform="translate(0.5,0.5)"><path class="background" aria-hidden="true" d="M0,0h0v0h0Z" pointer-events="none"/><g><g class="mark-rule role-axis-tick" pointer-events="none"><line transform="translate(0,200)" x2="-5" y2="0" stroke="#888" stroke-width="1" opacity="1"/><line transform="translate(0,167)" x2="-5" y2="0" stroke="#888" stroke-width="1" opacity="1"/><line transform="translate(0,133)" x2="-5" y2="0" stroke="#888" stroke-width="1" opacity="1"/><line transform="translate(0,100)" x2="-5" y2="0" stroke="#888" stroke-width="1" opacity="1"/><line transform="translate(0,67)" x2="-5" y2="0" stroke="#888" stroke-width="1" opacity="1"/><line transform="translate(0,33)" x2="-5" y2="0" stroke="#888" stroke-width="1" opacity="1"/><line transform="translate(0,0)" x2="-5" y2="0" stroke="#888" stroke-width="1" opacity="1"/></g><g class="mark-text role-axis-label" pointer-events="none"><text text-anchor="end" transform="translate(-7,203)" font-family="sans-serif" font-size="10px" fill="#000" opacity="1">0</text><text text-anchor="end" transform="translate(-7,169.66666666666669)" font-family="sans-serif" font-size="10px" fill="#000" opacity="1">5</text><text text-anchor="end" transform="translate(-7,136.33333333333334)" font-family="sans-serif" font-size="10px" fill="#000" opacity="1">10</text><text text-anchor="end" transform="translate(-7,103)" font-family="sans-serif" font-size="10px" fill="#000" opacity="1">15</text><text text-anchor="end" transform="translate(-7,69.66666666666667)" font-family="sans-serif" font-size="10px" fill="#000" opacity="1">20</text><text text-anchor="end" transform="translate(-7,36.33333333333333)" font-family="sans-serif" font-size="10px" fill="#000" opacity="1">25</text><text text-anchor="end" transform="translate(-7,3)" font-family="sans-serif" font-size="10px" fill="#000" opacity="1">30</text></g><g class="mark-rule role-axis-domain" pointer-events="none"><line transform="translate(0,200)" x2="0" y2="-200" stroke="#888" stroke-width="1" opacity="1"/></g><g class="mark-text role-axis-title" pointer-events="none"><text text-anchor="middle" transform="translate(-22.123046875,100) rotate(-90) translate(0,-2)" font-family="sans-serif" font-size="11px" font-weight="bold" fill="#000" opacity="1">Number of Categories</text></g></g><path class="foreground" aria-hidden="true" d="" pointer-events="none" display="none"/></g></g><g class="mark-group role-scope pathgroup" role="graphics-object" aria-roledescription="group mark container"><g transform="translate(0,0)"><path class="background" aria-hidden="true" d="M0,0h400v200h-400Z"/><g><g class="mark-line role-mark marks" clip-path="url(#clip33)" role="graphics-object" aria-roledescription="line mark container"><path aria-label="Date: 2021-02; Number of Categories: 1; Topic: Bribery/Corruption; Count: 1" role="graphics-symbol" aria-roledescription="line mark" d="M8.857,193.333L16.858,193.333L51.704,186.667L86.848,186.667L121.146,193.333L251.71,193.333L286.568,193.333L295.425,193.333L321.724,193.333L330.01,193.333L382.571,193.333" stroke="#4c78a8" stroke-width="2"/></g></g><path class="foreground" aria-hidden="true" d="" display="none"/></g><g transform="translate(0,0)"><path class="background" aria-hidden="true" d="M0,0h400v200h-400Z"/><g><g class="mark-line role-mark marks" clip-path="url(#clip34)" role="graphics-object" aria-roledescription="line mark container"><path aria-label="Date: 2021-01; Number of Categories: 3; Topic: Drug Enforcement; Count: 3" role="graphics-symbol" aria-roledescription="line mark" d="M0,180L8.857,193.333L16.858,173.333L25.703,166.667L34.275,173.333L43.132,180L51.704,160L60.561,186.667L69.419,153.333L77.99,153.333L86.848,193.333L95.431,180L104.289,193.333L113.146,186.667L121.146,166.667L129.992,193.333L138.564,180L147.421,180L155.993,180L164.85,186.667L173.708,186.667L182.279,180L191.137,180L208.578,193.333L217.435,180L234.281,193.333L242.852,193.333L251.71,133.333L260.282,186.667L269.139,180L286.568,173.333L295.425,180L304.009,193.333L312.866,193.333L321.724,180L330.01,180L338.855,180L347.427,193.333L356.284,126.667L364.856,186.667L373.714,193.333L382.571,166.667L391.143,160L400,193.333" stroke="#f58518" stroke-width="2"/></g></g><path class="foreground" aria-hidden="true" d="" display="none"/></g><g transform="translate(0,0)"><path class="background" aria-hidden="true" d="M0,0h400v200h-400Z"/><g><g class="mark-line role-mark marks" clip-path="url(#clip35)" role="graphics-object" aria-roledescription="line mark container"><path aria-label="Date: 2021-02; Number of Categories: 1; Topic: Financial Fraud; Count: 1" role="graphics-symbol" aria-roledescription="line mark" d="M8.857,193.333L51.704,193.333L164.85,193.333L251.71,193.333L277.996,193.333L338.855,193.333L382.571,193.333" stroke="#e45756" stroke-width="2"/></g></g><path class="foreground" aria-hidden="true" d="" display="none"/></g><g transform="translate(0,0)"><path class="background" aria-hidden="true" d="M0,0h400v200h-400Z"/><g><g class="mark-line role-mark marks" clip-path="url(#clip36)" role="graphics-object" aria-roledescription="line mark container"><path aria-label="Date: 2021-01; Number of Categories: 9; Topic: Health Care Fraud; Count: 9" role="graphics-symbol" aria-roledescription="line mark" d="M0,140L8.857,66.667L16.858,86.667L25.703,60L34.275,86.667L43.132,113.333L51.704,73.333L60.561,80L69.419,60L77.99,126.667L86.848,60L95.431,100L104.289,140L113.146,86.667L121.146,100L129.992,80L138.564,80L147.421,60L155.993,93.333L164.85,66.667L173.708,66.667L182.279,66.667L191.137,73.333L199.72,120L208.578,126.667L217.435,146.667L225.435,33.333L234.281,66.667L242.852,6.667L251.71,86.667L260.282,140L269.139,40L277.996,66.667L286.568,73.333L295.425,106.667L304.009,40L312.866,46.667L321.724,106.667L330.01,80L338.855,113.333L347.427,46.667L356.284,40L364.856,26.667L373.714,100L382.571,60L391.143,73.333L400,166.667" stroke="#72b7b2" stroke-width="2"/></g></g><path class="foreground" aria-hidden="true" d="" display="none"/></g><g transform="translate(0,0)"><path class="background" aria-hidden="true" d="M0,0h400v200h-400Z"/><g><g class="mark-line role-mark marks" clip-path="url(#clip37)" role="graphics-object" aria-roledescription="line mark container"><path aria-label="Date: 2021-01; Number of Categories: 10; Topic: Other; Count: 10" role="graphics-symbol" aria-roledescription="line mark" d="M0,133.333L8.857,126.667L16.858,113.333L25.703,146.667L34.275,106.667L43.132,46.667L51.704,140L60.561,93.333L69.419,73.333L77.99,106.667L86.848,66.667L95.431,86.667L104.289,133.333L113.146,146.667L121.146,106.667L129.992,153.333L138.564,133.333L147.421,86.667L155.993,100L164.85,113.333L173.708,93.333L182.279,126.667L191.137,133.333L199.72,126.667L208.578,80L217.435,113.333L225.435,66.667L234.281,46.667L242.852,60L251.71,93.333L260.282,120L269.139,106.667L277.996,40L286.568,80L295.425,100L304.009,113.333L312.866,113.333L321.724,140L330.01,113.333L338.855,93.333L347.427,53.333L356.284,93.333L364.856,66.667L373.714,100L382.571,93.333L391.143,86.667L400,173.333" stroke="#54a24b" stroke-width="2"/></g></g><path class="foreground" aria-hidden="true" d="" display="none"/></g></g><g class="mark-group role-legend" role="graphics-symbol" aria-roledescription="legend" aria-label="Symbol legend titled 'Topic' for stroke color with 5 values: Bribery/Corruption, Drug Enforcement, Financial Fraud, Health Care Fraud, Other"><g transform="translate(418,0)"><path class="background" aria-hidden="true" d="M0,0h99v79h-99Z" pointer-events="none"/><g><g class="mark-group role-legend-entry"><g transform="translate(0,16)"><path class="background" aria-hidden="true" d="M0,0h0v0h0Z" pointer-events="none"/><g><g class="mark-group role-scope" role="graphics-object" aria-roledescription="group mark container"><g transform="translate(0,0)"><path class="background" aria-hidden="true" d="M0,0h98.2607421875v11h-98.2607421875Z" pointer-events="none" opacity="1"/><g><g class="mark-symbol role-legend-symbol" pointer-events="none"><path transform="translate(6,6)" d="M-5,0L5,0" stroke="#4c78a8" stroke-width="1.5" opacity="1"/></g><g class="mark-text role-legend-label" pointer-events="none"><text text-anchor="start" transform="translate(16,9)" font-family="sans-serif" font-size="10px" fill="#000" opacity="1">Bribery/Corruption</text></g></g><path class="foreground" aria-hidden="true" d="" pointer-events="none" display="none"/></g><g transform="translate(0,13)"><path class="background" aria-hidden="true" d="M0,0h98.2607421875v11h-98.2607421875Z" pointer-events="none" opacity="1"/><g><g class="mark-symbol role-legend-symbol" pointer-events="none"><path transform="translate(6,6)" d="M-5,0L5,0" stroke="#f58518" stroke-width="1.5" opacity="1"/></g><g class="mark-text role-legend-label" pointer-events="none"><text text-anchor="start" transform="translate(16,9)" font-family="sans-serif" font-size="10px" fill="#000" opacity="1">Drug Enforcement</text></g></g><path class="foreground" aria-hidden="true" d="" pointer-events="none" display="none"/></g><g transform="translate(0,26)"><path class="background" aria-hidden="true" d="M0,0h98.2607421875v11h-98.2607421875Z" pointer-events="none" opacity="1"/><g><g class="mark-symbol role-legend-symbol" pointer-events="none"><path transform="translate(6,6)" d="M-5,0L5,0" stroke="#e45756" stroke-width="1.5" opacity="1"/></g><g class="mark-text role-legend-label" pointer-events="none"><text text-anchor="start" transform="translate(16,9)" font-family="sans-serif" font-size="10px" fill="#000" opacity="1">Financial Fraud</text></g></g><path class="foreground" aria-hidden="true" d="" pointer-events="none" display="none"/></g><g transform="translate(0,39)"><path class="background" aria-hidden="true" d="M0,0h98.2607421875v11h-98.2607421875Z" pointer-events="none" opacity="1"/><g><g class="mark-symbol role-legend-symbol" pointer-events="none"><path transform="translate(6,6)" d="M-5,0L5,0" stroke="#72b7b2" stroke-width="1.5" opacity="1"/></g><g class="mark-text role-legend-label" pointer-events="none"><text text-anchor="start" transform="translate(16,9)" font-family="sans-serif" font-size="10px" fill="#000" opacity="1">Health Care Fraud</text></g></g><path class="foreground" aria-hidden="true" d="" pointer-events="none" display="none"/></g><g transform="translate(0,52)"><path class="background" aria-hidden="true" d="M0,0h98.2607421875v11h-98.2607421875Z" pointer-events="none" opacity="1"/><g><g class="mark-symbol role-legend-symbol" pointer-events="none"><path transform="translate(6,6)" d="M-5,0L5,0" stroke="#54a24b" stroke-width="1.5" opacity="1"/></g><g class="mark-text role-legend-label" pointer-events="none"><text text-anchor="start" transform="translate(16,9)" font-family="sans-serif" font-size="10px" fill="#000" opacity="1">Other</text></g></g><path class="foreground" aria-hidden="true" d="" pointer-events="none" display="none"/></g></g></g><path class="foreground" aria-hidden="true" d="" pointer-events="none" display="none"/></g></g><g class="mark-text role-legend-title" pointer-events="none"><text text-anchor="start" transform="translate(0,9)" font-family="sans-serif" font-size="11px" font-weight="bold" fill="#000" opacity="1">Topic</text></g></g><path class="foreground" aria-hidden="true" d="" pointer-events="none" display="none"/></g></g><g class="mark-group role-title"><g transform="translate(200,-22)"><path class="background" aria-hidden="true" d="M0,0h0v0h0Z" pointer-events="none"/><g><g class="mark-text role-title-text" role="graphics-symbol" aria-roledescription="title" aria-label="Title text 'Number of Criminal and Civil Actions Over Time by Topic'" pointer-events="none"><text text-anchor="middle" transform="translate(0,10)" font-family="sans-serif" font-size="13px" font-weight="bold" fill="#000" opacity="1">Number of Criminal and Civil Actions Over Time by Topic</text></g></g><path class="foreground" aria-hidden="true" d="" pointer-events="none" display="none"/></g></g></g><path class="foreground" aria-hidden="true" d="" display="none"/></g></g></g><defs><clipPath id="clip33"><rect x="0" y="0" width="400" height="200"/></clipPath><clipPath id="clip34"><rect x="0" y="0" width="400" height="200"/></clipPath><clipPath id="clip35"><rect x="0" y="0" width="400" height="200"/></clipPath><clipPath id="clip36"><rect x="0" y="0" width="400" height="200"/></clipPath><clipPath id="clip37"><rect x="0" y="0" width="400" height="200"/></clipPath></defs></svg>